M48
;DRILL file {KiCad (5.0.1)-rc2} date 2018-11-22 19:58:59
;FORMAT={-:-/ absolute / metric / decimal}
FMAT,2
METRIC,TZ
T1C0.500
T2C0.800
T3C1.000
T4C1.300
%
G90
G05
M71
T1
X161.29Y-60.96
X163.83Y-66.04
X169.545Y-60.96
X172.72Y-58.42
X173.99Y-70.485
X181.61Y-65.389
T2
X159.385Y-64.77
X159.385Y-69.65
T3
X168.275Y-53.34
X168.275Y-55.88
X168.275Y-58.42
X170.815Y-53.34
X170.815Y-55.88
X170.815Y-58.42
X196.215Y-61.595
X196.215Y-64.135
X196.215Y-66.675
X196.215Y-69.215
X198.755Y-61.595
X198.755Y-64.135
X198.755Y-66.675
X198.755Y-69.215
X177.8Y-70.485
X180.34Y-70.485
X158.115Y-55.245
X160.655Y-55.245
X163.195Y-55.245
T4
X181.61Y-54.89
X181.61Y-75.89
T0
M30
