G04 #@! TF.GenerationSoftware,KiCad,Pcbnew,(5.0.2)-1*
G04 #@! TF.CreationDate,2019-01-29T15:59:56+01:00*
G04 #@! TF.ProjectId,Kontrola,4b6f6e74-726f-46c6-912e-6b696361645f,rev?*
G04 #@! TF.SameCoordinates,Original*
G04 #@! TF.FileFunction,Copper,L2,Bot*
G04 #@! TF.FilePolarity,Positive*
%FSLAX46Y46*%
G04 Gerber Fmt 4.6, Leading zero omitted, Abs format (unit mm)*
G04 Created by KiCad (PCBNEW (5.0.2)-1) date 2019-01-29 15:59:56*
%MOMM*%
%LPD*%
G01*
G04 APERTURE LIST*
G04 #@! TA.AperFunction,ComponentPad*
%ADD10R,1.700000X1.700000*%
G04 #@! TD*
G04 #@! TA.AperFunction,ComponentPad*
%ADD11O,1.700000X1.700000*%
G04 #@! TD*
G04 #@! TA.AperFunction,ComponentPad*
%ADD12C,1.500000*%
G04 #@! TD*
G04 #@! TA.AperFunction,ComponentPad*
%ADD13C,2.000000*%
G04 #@! TD*
G04 #@! TA.AperFunction,ViaPad*
%ADD14C,0.900000*%
G04 #@! TD*
G04 #@! TA.AperFunction,Conductor*
%ADD15C,0.300000*%
G04 #@! TD*
G04 #@! TA.AperFunction,Conductor*
%ADD16C,0.450000*%
G04 #@! TD*
G04 APERTURE END LIST*
D10*
G04 #@! TO.P,J1,1*
G04 #@! TO.N,GND*
X177800000Y-70485000D03*
D11*
G04 #@! TO.P,J1,2*
G04 #@! TO.N,+3V3*
X180340000Y-70485000D03*
G04 #@! TD*
D10*
G04 #@! TO.P,J2,1*
G04 #@! TO.N,/GEN*
X163195000Y-55245000D03*
D11*
G04 #@! TO.P,J2,2*
G04 #@! TO.N,/czujnik*
X160655000Y-55245000D03*
G04 #@! TO.P,J2,3*
G04 #@! TO.N,Net-(J2-Pad3)*
X158115000Y-55245000D03*
G04 #@! TD*
G04 #@! TO.P,J3,8*
G04 #@! TO.N,/IRQ*
X198755000Y-61595000D03*
G04 #@! TO.P,J3,7*
G04 #@! TO.N,/MISO*
X196215000Y-61595000D03*
G04 #@! TO.P,J3,6*
G04 #@! TO.N,/MOSI*
X198755000Y-64135000D03*
G04 #@! TO.P,J3,5*
G04 #@! TO.N,/SCK*
X196215000Y-64135000D03*
G04 #@! TO.P,J3,4*
G04 #@! TO.N,/CSN*
X198755000Y-66675000D03*
G04 #@! TO.P,J3,3*
G04 #@! TO.N,/CE*
X196215000Y-66675000D03*
G04 #@! TO.P,J3,2*
G04 #@! TO.N,/VCC_R*
X198755000Y-69215000D03*
D10*
G04 #@! TO.P,J3,1*
G04 #@! TO.N,GND*
X196215000Y-69215000D03*
G04 #@! TD*
G04 #@! TO.P,J4,1*
G04 #@! TO.N,/MISO*
X168275000Y-58420000D03*
D11*
G04 #@! TO.P,J4,2*
G04 #@! TO.N,+3V3*
X170815000Y-58420000D03*
G04 #@! TO.P,J4,3*
G04 #@! TO.N,/SCK*
X168275000Y-55880000D03*
G04 #@! TO.P,J4,4*
G04 #@! TO.N,/MOSI*
X170815000Y-55880000D03*
G04 #@! TO.P,J4,5*
G04 #@! TO.N,/~RESET*
X168275000Y-53340000D03*
G04 #@! TO.P,J4,6*
G04 #@! TO.N,GND*
X170815000Y-53340000D03*
G04 #@! TD*
D12*
G04 #@! TO.P,Y1,1*
G04 #@! TO.N,Net-(C5-Pad2)*
X159385000Y-69650000D03*
G04 #@! TO.P,Y1,2*
G04 #@! TO.N,Net-(C6-Pad2)*
X159385000Y-64770000D03*
G04 #@! TD*
D13*
G04 #@! TO.P,U1,1*
G04 #@! TO.N,GND*
X181610000Y-54890000D03*
G04 #@! TO.P,U1,2*
G04 #@! TO.N,+3V3*
X181610000Y-75890000D03*
G04 #@! TD*
D14*
G04 #@! TO.N,+3V3*
X163830000Y-66040000D03*
X172720000Y-58420000D03*
G04 #@! TO.N,/MOSI*
X181610000Y-65389001D03*
X173990000Y-70485000D03*
G04 #@! TO.N,/pinHL*
X161290000Y-60960000D03*
X169545000Y-60960000D03*
G04 #@! TD*
D15*
G04 #@! TO.N,+3V3*
X165128622Y-66040000D02*
X163830000Y-66040000D01*
X167668622Y-63500000D02*
X165128622Y-66040000D01*
X169545000Y-63500000D02*
X167668622Y-63500000D01*
X172720000Y-58420000D02*
X172720000Y-60325000D01*
X172720000Y-60325000D02*
X169545000Y-63500000D01*
G04 #@! TO.N,/MOSI*
X181610000Y-65389001D02*
X179085999Y-65389001D01*
X179085999Y-65389001D02*
X173990000Y-70485000D01*
D16*
G04 #@! TO.N,/pinHL*
X161290000Y-60960000D02*
X169545000Y-60960000D01*
G04 #@! TD*
M02*
