%FSLAX45Y45*%
G04 Gerber Fmt 4.5, Leading zero omitted, Abs format (unit mm)*
G04 Created by KiCad (PCBNEW (5.0.1)-rc2) date 2018-11-22 19:59:01*
%MOMM*%
%LPD*%
G01*
G04 APERTURE LIST*
%ADD10C,0.150000*%
%ADD11C,0.200000*%
%ADD12C,0.300000*%
G04 APERTURE END LIST*
D10*
X20256500Y-8001000D02*
X20256500Y-5016500D01*
X15367000Y-8001000D02*
X20256500Y-8001000D01*
X15367000Y-5016500D02*
X15367000Y-8001000D01*
X20256500Y-5016500D02*
X15367000Y-5016500D01*
D11*
D12*
X15645928Y-8474214D02*
X15645928Y-8174214D01*
X15717357Y-8174214D01*
X15760214Y-8188500D01*
X15788786Y-8217071D01*
X15803071Y-8245643D01*
X15817357Y-8302786D01*
X15817357Y-8345643D01*
X15803071Y-8402786D01*
X15788786Y-8431357D01*
X15760214Y-8459929D01*
X15717357Y-8474214D01*
X15645928Y-8474214D01*
X15945928Y-8474214D02*
X15945928Y-8274214D01*
X15945928Y-8331357D02*
X15960214Y-8302786D01*
X15974500Y-8288500D01*
X16003071Y-8274214D01*
X16031643Y-8274214D01*
X16131643Y-8474214D02*
X16131643Y-8274214D01*
X16131643Y-8174214D02*
X16117357Y-8188500D01*
X16131643Y-8202786D01*
X16145928Y-8188500D01*
X16131643Y-8174214D01*
X16131643Y-8202786D01*
X16317357Y-8474214D02*
X16288786Y-8459929D01*
X16274500Y-8431357D01*
X16274500Y-8174214D01*
X16474500Y-8474214D02*
X16445928Y-8459929D01*
X16431643Y-8431357D01*
X16431643Y-8174214D01*
X16817357Y-8474214D02*
X16817357Y-8174214D01*
X16917357Y-8388500D01*
X17017357Y-8174214D01*
X17017357Y-8474214D01*
X17288786Y-8474214D02*
X17288786Y-8317071D01*
X17274500Y-8288500D01*
X17245928Y-8274214D01*
X17188786Y-8274214D01*
X17160214Y-8288500D01*
X17288786Y-8459929D02*
X17260214Y-8474214D01*
X17188786Y-8474214D01*
X17160214Y-8459929D01*
X17145928Y-8431357D01*
X17145928Y-8402786D01*
X17160214Y-8374214D01*
X17188786Y-8359929D01*
X17260214Y-8359929D01*
X17288786Y-8345643D01*
X17431643Y-8274214D02*
X17431643Y-8574214D01*
X17431643Y-8288500D02*
X17460214Y-8274214D01*
X17517357Y-8274214D01*
X17545928Y-8288500D01*
X17560214Y-8302786D01*
X17574500Y-8331357D01*
X17574500Y-8417072D01*
X17560214Y-8445643D01*
X17545928Y-8459929D01*
X17517357Y-8474214D01*
X17460214Y-8474214D01*
X17431643Y-8459929D01*
X17703071Y-8445643D02*
X17717357Y-8459929D01*
X17703071Y-8474214D01*
X17688786Y-8459929D01*
X17703071Y-8445643D01*
X17703071Y-8474214D01*
X17703071Y-8288500D02*
X17717357Y-8302786D01*
X17703071Y-8317071D01*
X17688786Y-8302786D01*
X17703071Y-8288500D01*
X17703071Y-8317071D01*
M02*
