%FSLAX45Y45*%
G04 Gerber Fmt 4.5, Leading zero omitted, Abs format (unit mm)*
G04 Created by KiCad (PCBNEW (5.0.1)-rc2) date 2018-11-22 19:59:01*
%MOMM*%
%LPD*%
G01*
G04 APERTURE LIST*
%ADD10C,0.150000*%
%ADD11C,0.200000*%
%ADD12C,0.300000*%
G04 APERTURE END LIST*
D10*
X20256500Y-8001000D02*
X20256500Y-5016500D01*
X15367000Y-8001000D02*
X20256500Y-8001000D01*
X15367000Y-5016500D02*
X15367000Y-8001000D01*
X20256500Y-5016500D02*
X15367000Y-5016500D01*
D11*
X16104000Y-6071000D02*
X16154000Y-6121000D01*
X16154000Y-6071000D02*
X16104000Y-6121000D01*
X16358000Y-6579000D02*
X16408000Y-6629000D01*
X16408000Y-6579000D02*
X16358000Y-6629000D01*
X16929500Y-6071000D02*
X16979500Y-6121000D01*
X16979500Y-6071000D02*
X16929500Y-6121000D01*
X17247000Y-5817000D02*
X17297000Y-5867000D01*
X17297000Y-5817000D02*
X17247000Y-5867000D01*
X17374000Y-7023500D02*
X17424000Y-7073500D01*
X17424000Y-7023500D02*
X17374000Y-7073500D01*
X18136000Y-6513900D02*
X18186000Y-6563900D01*
X18186000Y-6513900D02*
X18136000Y-6563900D01*
X15978500Y-6477000D02*
G75*
G03X15978500Y-6477000I-40000J0D01*
G01*
X15978500Y-6965000D02*
G75*
G03X15978500Y-6965000I-40000J0D01*
G01*
X16827500Y-5284000D02*
X16827500Y-5384000D01*
X16777500Y-5334000D02*
X16877500Y-5334000D01*
X16827500Y-5538000D02*
X16827500Y-5638000D01*
X16777500Y-5588000D02*
X16877500Y-5588000D01*
X16827500Y-5792000D02*
X16827500Y-5892000D01*
X16777500Y-5842000D02*
X16877500Y-5842000D01*
X17081500Y-5284000D02*
X17081500Y-5384000D01*
X17031500Y-5334000D02*
X17131500Y-5334000D01*
X17081500Y-5538000D02*
X17081500Y-5638000D01*
X17031500Y-5588000D02*
X17131500Y-5588000D01*
X17081500Y-5792000D02*
X17081500Y-5892000D01*
X17031500Y-5842000D02*
X17131500Y-5842000D01*
X19621500Y-6109500D02*
X19621500Y-6209500D01*
X19571500Y-6159500D02*
X19671500Y-6159500D01*
X19621500Y-6363500D02*
X19621500Y-6463500D01*
X19571500Y-6413500D02*
X19671500Y-6413500D01*
X19621500Y-6617500D02*
X19621500Y-6717500D01*
X19571500Y-6667500D02*
X19671500Y-6667500D01*
X19621500Y-6871500D02*
X19621500Y-6971500D01*
X19571500Y-6921500D02*
X19671500Y-6921500D01*
X19875500Y-6109500D02*
X19875500Y-6209500D01*
X19825500Y-6159500D02*
X19925500Y-6159500D01*
X19875500Y-6363500D02*
X19875500Y-6463500D01*
X19825500Y-6413500D02*
X19925500Y-6413500D01*
X19875500Y-6617500D02*
X19875500Y-6717500D01*
X19825500Y-6667500D02*
X19925500Y-6667500D01*
X19875500Y-6871500D02*
X19875500Y-6971500D01*
X19825500Y-6921500D02*
X19925500Y-6921500D01*
X17780000Y-6998500D02*
X17780000Y-7098500D01*
X17730000Y-7048500D02*
X17830000Y-7048500D01*
X18034000Y-6998500D02*
X18034000Y-7098500D01*
X17984000Y-7048500D02*
X18084000Y-7048500D01*
X15811500Y-5474500D02*
X15811500Y-5574500D01*
X15761500Y-5524500D02*
X15861500Y-5524500D01*
X16065500Y-5474500D02*
X16065500Y-5574500D01*
X16015500Y-5524500D02*
X16115500Y-5524500D01*
X16319500Y-5474500D02*
X16319500Y-5574500D01*
X16269500Y-5524500D02*
X16369500Y-5524500D01*
X18206962Y-5534962D02*
X18206962Y-5443038D01*
X18115038Y-5443038D01*
X18115038Y-5534962D01*
X18206962Y-5534962D01*
X18206962Y-7634962D02*
X18206962Y-7543038D01*
X18115038Y-7543038D01*
X18115038Y-7634962D01*
X18206962Y-7634962D01*
D12*
X15645928Y-8474214D02*
X15645928Y-8174214D01*
X15717357Y-8174214D01*
X15760214Y-8188500D01*
X15788786Y-8217071D01*
X15803071Y-8245643D01*
X15817357Y-8302786D01*
X15817357Y-8345643D01*
X15803071Y-8402786D01*
X15788786Y-8431357D01*
X15760214Y-8459929D01*
X15717357Y-8474214D01*
X15645928Y-8474214D01*
X15945928Y-8474214D02*
X15945928Y-8274214D01*
X15945928Y-8331357D02*
X15960214Y-8302786D01*
X15974500Y-8288500D01*
X16003071Y-8274214D01*
X16031643Y-8274214D01*
X16131643Y-8474214D02*
X16131643Y-8274214D01*
X16131643Y-8174214D02*
X16117357Y-8188500D01*
X16131643Y-8202786D01*
X16145928Y-8188500D01*
X16131643Y-8174214D01*
X16131643Y-8202786D01*
X16317357Y-8474214D02*
X16288786Y-8459929D01*
X16274500Y-8431357D01*
X16274500Y-8174214D01*
X16474500Y-8474214D02*
X16445928Y-8459929D01*
X16431643Y-8431357D01*
X16431643Y-8174214D01*
X16817357Y-8474214D02*
X16817357Y-8174214D01*
X16917357Y-8388500D01*
X17017357Y-8174214D01*
X17017357Y-8474214D01*
X17288786Y-8474214D02*
X17288786Y-8317071D01*
X17274500Y-8288500D01*
X17245928Y-8274214D01*
X17188786Y-8274214D01*
X17160214Y-8288500D01*
X17288786Y-8459929D02*
X17260214Y-8474214D01*
X17188786Y-8474214D01*
X17160214Y-8459929D01*
X17145928Y-8431357D01*
X17145928Y-8402786D01*
X17160214Y-8374214D01*
X17188786Y-8359929D01*
X17260214Y-8359929D01*
X17288786Y-8345643D01*
X17431643Y-8274214D02*
X17431643Y-8574214D01*
X17431643Y-8288500D02*
X17460214Y-8274214D01*
X17517357Y-8274214D01*
X17545928Y-8288500D01*
X17560214Y-8302786D01*
X17574500Y-8331357D01*
X17574500Y-8417072D01*
X17560214Y-8445643D01*
X17545928Y-8459929D01*
X17517357Y-8474214D01*
X17460214Y-8474214D01*
X17431643Y-8459929D01*
X17703071Y-8445643D02*
X17717357Y-8459929D01*
X17703071Y-8474214D01*
X17688786Y-8459929D01*
X17703071Y-8445643D01*
X17703071Y-8474214D01*
X17703071Y-8288500D02*
X17717357Y-8302786D01*
X17703071Y-8317071D01*
X17688786Y-8302786D01*
X17703071Y-8288500D01*
X17703071Y-8317071D01*
X15309500Y-8943500D02*
X15359500Y-8993500D01*
X15359500Y-8943500D02*
X15309500Y-8993500D01*
X15703071Y-8804214D02*
X15731643Y-8804214D01*
X15760214Y-8818500D01*
X15774500Y-8832786D01*
X15788786Y-8861357D01*
X15803071Y-8918500D01*
X15803071Y-8989929D01*
X15788786Y-9047072D01*
X15774500Y-9075643D01*
X15760214Y-9089929D01*
X15731643Y-9104214D01*
X15703071Y-9104214D01*
X15674500Y-9089929D01*
X15660214Y-9075643D01*
X15645928Y-9047072D01*
X15631643Y-8989929D01*
X15631643Y-8918500D01*
X15645928Y-8861357D01*
X15660214Y-8832786D01*
X15674500Y-8818500D01*
X15703071Y-8804214D01*
X15931643Y-9075643D02*
X15945928Y-9089929D01*
X15931643Y-9104214D01*
X15917357Y-9089929D01*
X15931643Y-9075643D01*
X15931643Y-9104214D01*
X16217357Y-8804214D02*
X16074500Y-8804214D01*
X16060214Y-8947072D01*
X16074500Y-8932786D01*
X16103071Y-8918500D01*
X16174500Y-8918500D01*
X16203071Y-8932786D01*
X16217357Y-8947072D01*
X16231643Y-8975643D01*
X16231643Y-9047072D01*
X16217357Y-9075643D01*
X16203071Y-9089929D01*
X16174500Y-9104214D01*
X16103071Y-9104214D01*
X16074500Y-9089929D01*
X16060214Y-9075643D01*
X16417357Y-8804214D02*
X16445928Y-8804214D01*
X16474500Y-8818500D01*
X16488786Y-8832786D01*
X16503071Y-8861357D01*
X16517357Y-8918500D01*
X16517357Y-8989929D01*
X16503071Y-9047072D01*
X16488786Y-9075643D01*
X16474500Y-9089929D01*
X16445928Y-9104214D01*
X16417357Y-9104214D01*
X16388786Y-9089929D01*
X16374500Y-9075643D01*
X16360214Y-9047072D01*
X16345928Y-8989929D01*
X16345928Y-8918500D01*
X16360214Y-8861357D01*
X16374500Y-8832786D01*
X16388786Y-8818500D01*
X16417357Y-8804214D01*
X16645928Y-9104214D02*
X16645928Y-8904214D01*
X16645928Y-8932786D02*
X16660214Y-8918500D01*
X16688786Y-8904214D01*
X16731643Y-8904214D01*
X16760214Y-8918500D01*
X16774500Y-8947072D01*
X16774500Y-9104214D01*
X16774500Y-8947072D02*
X16788786Y-8918500D01*
X16817357Y-8904214D01*
X16860214Y-8904214D01*
X16888786Y-8918500D01*
X16903071Y-8947072D01*
X16903071Y-9104214D01*
X17045928Y-9104214D02*
X17045928Y-8904214D01*
X17045928Y-8932786D02*
X17060214Y-8918500D01*
X17088786Y-8904214D01*
X17131643Y-8904214D01*
X17160214Y-8918500D01*
X17174500Y-8947072D01*
X17174500Y-9104214D01*
X17174500Y-8947072D02*
X17188786Y-8918500D01*
X17217357Y-8904214D01*
X17260214Y-8904214D01*
X17288786Y-8918500D01*
X17303071Y-8947072D01*
X17303071Y-9104214D01*
X17888786Y-8789929D02*
X17631643Y-9175643D01*
X18274500Y-8804214D02*
X18303071Y-8804214D01*
X18331643Y-8818500D01*
X18345928Y-8832786D01*
X18360214Y-8861357D01*
X18374500Y-8918500D01*
X18374500Y-8989929D01*
X18360214Y-9047072D01*
X18345928Y-9075643D01*
X18331643Y-9089929D01*
X18303071Y-9104214D01*
X18274500Y-9104214D01*
X18245928Y-9089929D01*
X18231643Y-9075643D01*
X18217357Y-9047072D01*
X18203071Y-8989929D01*
X18203071Y-8918500D01*
X18217357Y-8861357D01*
X18231643Y-8832786D01*
X18245928Y-8818500D01*
X18274500Y-8804214D01*
X18503071Y-9075643D02*
X18517357Y-9089929D01*
X18503071Y-9104214D01*
X18488786Y-9089929D01*
X18503071Y-9075643D01*
X18503071Y-9104214D01*
X18703071Y-8804214D02*
X18731643Y-8804214D01*
X18760214Y-8818500D01*
X18774500Y-8832786D01*
X18788786Y-8861357D01*
X18803071Y-8918500D01*
X18803071Y-8989929D01*
X18788786Y-9047072D01*
X18774500Y-9075643D01*
X18760214Y-9089929D01*
X18731643Y-9104214D01*
X18703071Y-9104214D01*
X18674500Y-9089929D01*
X18660214Y-9075643D01*
X18645928Y-9047072D01*
X18631643Y-8989929D01*
X18631643Y-8918500D01*
X18645928Y-8861357D01*
X18660214Y-8832786D01*
X18674500Y-8818500D01*
X18703071Y-8804214D01*
X18917357Y-8832786D02*
X18931643Y-8818500D01*
X18960214Y-8804214D01*
X19031643Y-8804214D01*
X19060214Y-8818500D01*
X19074500Y-8832786D01*
X19088786Y-8861357D01*
X19088786Y-8889929D01*
X19074500Y-8932786D01*
X18903071Y-9104214D01*
X19088786Y-9104214D01*
X19274500Y-8804214D02*
X19303071Y-8804214D01*
X19331643Y-8818500D01*
X19345928Y-8832786D01*
X19360214Y-8861357D01*
X19374500Y-8918500D01*
X19374500Y-8989929D01*
X19360214Y-9047072D01*
X19345928Y-9075643D01*
X19331643Y-9089929D01*
X19303071Y-9104214D01*
X19274500Y-9104214D01*
X19245928Y-9089929D01*
X19231643Y-9075643D01*
X19217357Y-9047072D01*
X19203071Y-8989929D01*
X19203071Y-8918500D01*
X19217357Y-8861357D01*
X19231643Y-8832786D01*
X19245928Y-8818500D01*
X19274500Y-8804214D01*
X19488786Y-8804214D02*
X19488786Y-8861357D01*
X19603071Y-8804214D02*
X19603071Y-8861357D01*
X20045928Y-9218500D02*
X20031643Y-9204214D01*
X20003071Y-9161357D01*
X19988786Y-9132786D01*
X19974500Y-9089929D01*
X19960214Y-9018500D01*
X19960214Y-8961357D01*
X19974500Y-8889929D01*
X19988786Y-8847072D01*
X20003071Y-8818500D01*
X20031643Y-8775643D01*
X20045928Y-8761357D01*
X20288786Y-8804214D02*
X20231643Y-8804214D01*
X20203071Y-8818500D01*
X20188786Y-8832786D01*
X20160214Y-8875643D01*
X20145928Y-8932786D01*
X20145928Y-9047072D01*
X20160214Y-9075643D01*
X20174500Y-9089929D01*
X20203071Y-9104214D01*
X20260214Y-9104214D01*
X20288786Y-9089929D01*
X20303071Y-9075643D01*
X20317357Y-9047072D01*
X20317357Y-8975643D01*
X20303071Y-8947072D01*
X20288786Y-8932786D01*
X20260214Y-8918500D01*
X20203071Y-8918500D01*
X20174500Y-8932786D01*
X20160214Y-8947072D01*
X20145928Y-8975643D01*
X20674500Y-9104214D02*
X20674500Y-8804214D01*
X20803071Y-9104214D02*
X20803071Y-8947072D01*
X20788786Y-8918500D01*
X20760214Y-8904214D01*
X20717357Y-8904214D01*
X20688786Y-8918500D01*
X20674500Y-8932786D01*
X20988786Y-9104214D02*
X20960214Y-9089929D01*
X20945928Y-9075643D01*
X20931643Y-9047072D01*
X20931643Y-8961357D01*
X20945928Y-8932786D01*
X20960214Y-8918500D01*
X20988786Y-8904214D01*
X21031643Y-8904214D01*
X21060214Y-8918500D01*
X21074500Y-8932786D01*
X21088786Y-8961357D01*
X21088786Y-9047072D01*
X21074500Y-9075643D01*
X21060214Y-9089929D01*
X21031643Y-9104214D01*
X20988786Y-9104214D01*
X21260214Y-9104214D02*
X21231643Y-9089929D01*
X21217357Y-9061357D01*
X21217357Y-8804214D01*
X21488786Y-9089929D02*
X21460214Y-9104214D01*
X21403071Y-9104214D01*
X21374500Y-9089929D01*
X21360214Y-9061357D01*
X21360214Y-8947072D01*
X21374500Y-8918500D01*
X21403071Y-8904214D01*
X21460214Y-8904214D01*
X21488786Y-8918500D01*
X21503071Y-8947072D01*
X21503071Y-8975643D01*
X21360214Y-9004214D01*
X21617357Y-9089929D02*
X21645928Y-9104214D01*
X21703071Y-9104214D01*
X21731643Y-9089929D01*
X21745928Y-9061357D01*
X21745928Y-9047072D01*
X21731643Y-9018500D01*
X21703071Y-9004214D01*
X21660214Y-9004214D01*
X21631643Y-8989929D01*
X21617357Y-8961357D01*
X21617357Y-8947072D01*
X21631643Y-8918500D01*
X21660214Y-8904214D01*
X21703071Y-8904214D01*
X21731643Y-8918500D01*
X21845928Y-9218500D02*
X21860214Y-9204214D01*
X21888786Y-9161357D01*
X21903071Y-9132786D01*
X21917357Y-9089929D01*
X21931643Y-9018500D01*
X21931643Y-8961357D01*
X21917357Y-8889929D01*
X21903071Y-8847072D01*
X21888786Y-8818500D01*
X21860214Y-8775643D01*
X21845928Y-8761357D01*
X15359500Y-9364500D02*
G75*
G03X15359500Y-9364500I-40000J0D01*
G01*
X15703071Y-9200214D02*
X15731643Y-9200214D01*
X15760214Y-9214500D01*
X15774500Y-9228786D01*
X15788786Y-9257357D01*
X15803071Y-9314500D01*
X15803071Y-9385929D01*
X15788786Y-9443072D01*
X15774500Y-9471643D01*
X15760214Y-9485929D01*
X15731643Y-9500214D01*
X15703071Y-9500214D01*
X15674500Y-9485929D01*
X15660214Y-9471643D01*
X15645928Y-9443072D01*
X15631643Y-9385929D01*
X15631643Y-9314500D01*
X15645928Y-9257357D01*
X15660214Y-9228786D01*
X15674500Y-9214500D01*
X15703071Y-9200214D01*
X15931643Y-9471643D02*
X15945928Y-9485929D01*
X15931643Y-9500214D01*
X15917357Y-9485929D01*
X15931643Y-9471643D01*
X15931643Y-9500214D01*
X16117357Y-9328786D02*
X16088786Y-9314500D01*
X16074500Y-9300214D01*
X16060214Y-9271643D01*
X16060214Y-9257357D01*
X16074500Y-9228786D01*
X16088786Y-9214500D01*
X16117357Y-9200214D01*
X16174500Y-9200214D01*
X16203071Y-9214500D01*
X16217357Y-9228786D01*
X16231643Y-9257357D01*
X16231643Y-9271643D01*
X16217357Y-9300214D01*
X16203071Y-9314500D01*
X16174500Y-9328786D01*
X16117357Y-9328786D01*
X16088786Y-9343072D01*
X16074500Y-9357357D01*
X16060214Y-9385929D01*
X16060214Y-9443072D01*
X16074500Y-9471643D01*
X16088786Y-9485929D01*
X16117357Y-9500214D01*
X16174500Y-9500214D01*
X16203071Y-9485929D01*
X16217357Y-9471643D01*
X16231643Y-9443072D01*
X16231643Y-9385929D01*
X16217357Y-9357357D01*
X16203071Y-9343072D01*
X16174500Y-9328786D01*
X16417357Y-9200214D02*
X16445928Y-9200214D01*
X16474500Y-9214500D01*
X16488786Y-9228786D01*
X16503071Y-9257357D01*
X16517357Y-9314500D01*
X16517357Y-9385929D01*
X16503071Y-9443072D01*
X16488786Y-9471643D01*
X16474500Y-9485929D01*
X16445928Y-9500214D01*
X16417357Y-9500214D01*
X16388786Y-9485929D01*
X16374500Y-9471643D01*
X16360214Y-9443072D01*
X16345928Y-9385929D01*
X16345928Y-9314500D01*
X16360214Y-9257357D01*
X16374500Y-9228786D01*
X16388786Y-9214500D01*
X16417357Y-9200214D01*
X16645928Y-9500214D02*
X16645928Y-9300214D01*
X16645928Y-9328786D02*
X16660214Y-9314500D01*
X16688786Y-9300214D01*
X16731643Y-9300214D01*
X16760214Y-9314500D01*
X16774500Y-9343072D01*
X16774500Y-9500214D01*
X16774500Y-9343072D02*
X16788786Y-9314500D01*
X16817357Y-9300214D01*
X16860214Y-9300214D01*
X16888786Y-9314500D01*
X16903071Y-9343072D01*
X16903071Y-9500214D01*
X17045928Y-9500214D02*
X17045928Y-9300214D01*
X17045928Y-9328786D02*
X17060214Y-9314500D01*
X17088786Y-9300214D01*
X17131643Y-9300214D01*
X17160214Y-9314500D01*
X17174500Y-9343072D01*
X17174500Y-9500214D01*
X17174500Y-9343072D02*
X17188786Y-9314500D01*
X17217357Y-9300214D01*
X17260214Y-9300214D01*
X17288786Y-9314500D01*
X17303071Y-9343072D01*
X17303071Y-9500214D01*
X17888786Y-9185929D02*
X17631643Y-9571643D01*
X18274500Y-9200214D02*
X18303071Y-9200214D01*
X18331643Y-9214500D01*
X18345928Y-9228786D01*
X18360214Y-9257357D01*
X18374500Y-9314500D01*
X18374500Y-9385929D01*
X18360214Y-9443072D01*
X18345928Y-9471643D01*
X18331643Y-9485929D01*
X18303071Y-9500214D01*
X18274500Y-9500214D01*
X18245928Y-9485929D01*
X18231643Y-9471643D01*
X18217357Y-9443072D01*
X18203071Y-9385929D01*
X18203071Y-9314500D01*
X18217357Y-9257357D01*
X18231643Y-9228786D01*
X18245928Y-9214500D01*
X18274500Y-9200214D01*
X18503071Y-9471643D02*
X18517357Y-9485929D01*
X18503071Y-9500214D01*
X18488786Y-9485929D01*
X18503071Y-9471643D01*
X18503071Y-9500214D01*
X18703071Y-9200214D02*
X18731643Y-9200214D01*
X18760214Y-9214500D01*
X18774500Y-9228786D01*
X18788786Y-9257357D01*
X18803071Y-9314500D01*
X18803071Y-9385929D01*
X18788786Y-9443072D01*
X18774500Y-9471643D01*
X18760214Y-9485929D01*
X18731643Y-9500214D01*
X18703071Y-9500214D01*
X18674500Y-9485929D01*
X18660214Y-9471643D01*
X18645928Y-9443072D01*
X18631643Y-9385929D01*
X18631643Y-9314500D01*
X18645928Y-9257357D01*
X18660214Y-9228786D01*
X18674500Y-9214500D01*
X18703071Y-9200214D01*
X18903071Y-9200214D02*
X19088786Y-9200214D01*
X18988786Y-9314500D01*
X19031643Y-9314500D01*
X19060214Y-9328786D01*
X19074500Y-9343072D01*
X19088786Y-9371643D01*
X19088786Y-9443072D01*
X19074500Y-9471643D01*
X19060214Y-9485929D01*
X19031643Y-9500214D01*
X18945928Y-9500214D01*
X18917357Y-9485929D01*
X18903071Y-9471643D01*
X19374500Y-9500214D02*
X19203071Y-9500214D01*
X19288786Y-9500214D02*
X19288786Y-9200214D01*
X19260214Y-9243072D01*
X19231643Y-9271643D01*
X19203071Y-9285929D01*
X19488786Y-9200214D02*
X19488786Y-9257357D01*
X19603071Y-9200214D02*
X19603071Y-9257357D01*
X20045928Y-9614500D02*
X20031643Y-9600214D01*
X20003071Y-9557357D01*
X19988786Y-9528786D01*
X19974500Y-9485929D01*
X19960214Y-9414500D01*
X19960214Y-9357357D01*
X19974500Y-9285929D01*
X19988786Y-9243072D01*
X20003071Y-9214500D01*
X20031643Y-9171643D01*
X20045928Y-9157357D01*
X20145928Y-9228786D02*
X20160214Y-9214500D01*
X20188786Y-9200214D01*
X20260214Y-9200214D01*
X20288786Y-9214500D01*
X20303071Y-9228786D01*
X20317357Y-9257357D01*
X20317357Y-9285929D01*
X20303071Y-9328786D01*
X20131643Y-9500214D01*
X20317357Y-9500214D01*
X20674500Y-9500214D02*
X20674500Y-9200214D01*
X20803071Y-9500214D02*
X20803071Y-9343072D01*
X20788786Y-9314500D01*
X20760214Y-9300214D01*
X20717357Y-9300214D01*
X20688786Y-9314500D01*
X20674500Y-9328786D01*
X20988786Y-9500214D02*
X20960214Y-9485929D01*
X20945928Y-9471643D01*
X20931643Y-9443072D01*
X20931643Y-9357357D01*
X20945928Y-9328786D01*
X20960214Y-9314500D01*
X20988786Y-9300214D01*
X21031643Y-9300214D01*
X21060214Y-9314500D01*
X21074500Y-9328786D01*
X21088786Y-9357357D01*
X21088786Y-9443072D01*
X21074500Y-9471643D01*
X21060214Y-9485929D01*
X21031643Y-9500214D01*
X20988786Y-9500214D01*
X21260214Y-9500214D02*
X21231643Y-9485929D01*
X21217357Y-9457357D01*
X21217357Y-9200214D01*
X21488786Y-9485929D02*
X21460214Y-9500214D01*
X21403071Y-9500214D01*
X21374500Y-9485929D01*
X21360214Y-9457357D01*
X21360214Y-9343072D01*
X21374500Y-9314500D01*
X21403071Y-9300214D01*
X21460214Y-9300214D01*
X21488786Y-9314500D01*
X21503071Y-9343072D01*
X21503071Y-9371643D01*
X21360214Y-9400214D01*
X21617357Y-9485929D02*
X21645928Y-9500214D01*
X21703071Y-9500214D01*
X21731643Y-9485929D01*
X21745928Y-9457357D01*
X21745928Y-9443072D01*
X21731643Y-9414500D01*
X21703071Y-9400214D01*
X21660214Y-9400214D01*
X21631643Y-9385929D01*
X21617357Y-9357357D01*
X21617357Y-9343072D01*
X21631643Y-9314500D01*
X21660214Y-9300214D01*
X21703071Y-9300214D01*
X21731643Y-9314500D01*
X21845928Y-9614500D02*
X21860214Y-9600214D01*
X21888786Y-9557357D01*
X21903071Y-9528786D01*
X21917357Y-9485929D01*
X21931643Y-9414500D01*
X21931643Y-9357357D01*
X21917357Y-9285929D01*
X21903071Y-9243072D01*
X21888786Y-9214500D01*
X21860214Y-9171643D01*
X21845928Y-9157357D01*
X15309500Y-9710500D02*
X15309500Y-9810500D01*
X15259500Y-9760500D02*
X15359500Y-9760500D01*
X15803071Y-9896214D02*
X15631643Y-9896214D01*
X15717357Y-9896214D02*
X15717357Y-9596214D01*
X15688786Y-9639072D01*
X15660214Y-9667643D01*
X15631643Y-9681929D01*
X15931643Y-9867643D02*
X15945928Y-9881929D01*
X15931643Y-9896214D01*
X15917357Y-9881929D01*
X15931643Y-9867643D01*
X15931643Y-9896214D01*
X16131643Y-9596214D02*
X16160214Y-9596214D01*
X16188786Y-9610500D01*
X16203071Y-9624786D01*
X16217357Y-9653357D01*
X16231643Y-9710500D01*
X16231643Y-9781929D01*
X16217357Y-9839072D01*
X16203071Y-9867643D01*
X16188786Y-9881929D01*
X16160214Y-9896214D01*
X16131643Y-9896214D01*
X16103071Y-9881929D01*
X16088786Y-9867643D01*
X16074500Y-9839072D01*
X16060214Y-9781929D01*
X16060214Y-9710500D01*
X16074500Y-9653357D01*
X16088786Y-9624786D01*
X16103071Y-9610500D01*
X16131643Y-9596214D01*
X16417357Y-9596214D02*
X16445928Y-9596214D01*
X16474500Y-9610500D01*
X16488786Y-9624786D01*
X16503071Y-9653357D01*
X16517357Y-9710500D01*
X16517357Y-9781929D01*
X16503071Y-9839072D01*
X16488786Y-9867643D01*
X16474500Y-9881929D01*
X16445928Y-9896214D01*
X16417357Y-9896214D01*
X16388786Y-9881929D01*
X16374500Y-9867643D01*
X16360214Y-9839072D01*
X16345928Y-9781929D01*
X16345928Y-9710500D01*
X16360214Y-9653357D01*
X16374500Y-9624786D01*
X16388786Y-9610500D01*
X16417357Y-9596214D01*
X16645928Y-9896214D02*
X16645928Y-9696214D01*
X16645928Y-9724786D02*
X16660214Y-9710500D01*
X16688786Y-9696214D01*
X16731643Y-9696214D01*
X16760214Y-9710500D01*
X16774500Y-9739072D01*
X16774500Y-9896214D01*
X16774500Y-9739072D02*
X16788786Y-9710500D01*
X16817357Y-9696214D01*
X16860214Y-9696214D01*
X16888786Y-9710500D01*
X16903071Y-9739072D01*
X16903071Y-9896214D01*
X17045928Y-9896214D02*
X17045928Y-9696214D01*
X17045928Y-9724786D02*
X17060214Y-9710500D01*
X17088786Y-9696214D01*
X17131643Y-9696214D01*
X17160214Y-9710500D01*
X17174500Y-9739072D01*
X17174500Y-9896214D01*
X17174500Y-9739072D02*
X17188786Y-9710500D01*
X17217357Y-9696214D01*
X17260214Y-9696214D01*
X17288786Y-9710500D01*
X17303071Y-9739072D01*
X17303071Y-9896214D01*
X17888786Y-9581929D02*
X17631643Y-9967643D01*
X18274500Y-9596214D02*
X18303071Y-9596214D01*
X18331643Y-9610500D01*
X18345928Y-9624786D01*
X18360214Y-9653357D01*
X18374500Y-9710500D01*
X18374500Y-9781929D01*
X18360214Y-9839072D01*
X18345928Y-9867643D01*
X18331643Y-9881929D01*
X18303071Y-9896214D01*
X18274500Y-9896214D01*
X18245928Y-9881929D01*
X18231643Y-9867643D01*
X18217357Y-9839072D01*
X18203071Y-9781929D01*
X18203071Y-9710500D01*
X18217357Y-9653357D01*
X18231643Y-9624786D01*
X18245928Y-9610500D01*
X18274500Y-9596214D01*
X18503071Y-9867643D02*
X18517357Y-9881929D01*
X18503071Y-9896214D01*
X18488786Y-9881929D01*
X18503071Y-9867643D01*
X18503071Y-9896214D01*
X18703071Y-9596214D02*
X18731643Y-9596214D01*
X18760214Y-9610500D01*
X18774500Y-9624786D01*
X18788786Y-9653357D01*
X18803071Y-9710500D01*
X18803071Y-9781929D01*
X18788786Y-9839072D01*
X18774500Y-9867643D01*
X18760214Y-9881929D01*
X18731643Y-9896214D01*
X18703071Y-9896214D01*
X18674500Y-9881929D01*
X18660214Y-9867643D01*
X18645928Y-9839072D01*
X18631643Y-9781929D01*
X18631643Y-9710500D01*
X18645928Y-9653357D01*
X18660214Y-9624786D01*
X18674500Y-9610500D01*
X18703071Y-9596214D01*
X18903071Y-9596214D02*
X19088786Y-9596214D01*
X18988786Y-9710500D01*
X19031643Y-9710500D01*
X19060214Y-9724786D01*
X19074500Y-9739072D01*
X19088786Y-9767643D01*
X19088786Y-9839072D01*
X19074500Y-9867643D01*
X19060214Y-9881929D01*
X19031643Y-9896214D01*
X18945928Y-9896214D01*
X18917357Y-9881929D01*
X18903071Y-9867643D01*
X19231643Y-9896214D02*
X19288786Y-9896214D01*
X19317357Y-9881929D01*
X19331643Y-9867643D01*
X19360214Y-9824786D01*
X19374500Y-9767643D01*
X19374500Y-9653357D01*
X19360214Y-9624786D01*
X19345928Y-9610500D01*
X19317357Y-9596214D01*
X19260214Y-9596214D01*
X19231643Y-9610500D01*
X19217357Y-9624786D01*
X19203071Y-9653357D01*
X19203071Y-9724786D01*
X19217357Y-9753357D01*
X19231643Y-9767643D01*
X19260214Y-9781929D01*
X19317357Y-9781929D01*
X19345928Y-9767643D01*
X19360214Y-9753357D01*
X19374500Y-9724786D01*
X19488786Y-9596214D02*
X19488786Y-9653357D01*
X19603071Y-9596214D02*
X19603071Y-9653357D01*
X20045928Y-10010500D02*
X20031643Y-9996214D01*
X20003071Y-9953357D01*
X19988786Y-9924786D01*
X19974500Y-9881929D01*
X19960214Y-9810500D01*
X19960214Y-9753357D01*
X19974500Y-9681929D01*
X19988786Y-9639072D01*
X20003071Y-9610500D01*
X20031643Y-9567643D01*
X20045928Y-9553357D01*
X20317357Y-9896214D02*
X20145928Y-9896214D01*
X20231643Y-9896214D02*
X20231643Y-9596214D01*
X20203071Y-9639072D01*
X20174500Y-9667643D01*
X20145928Y-9681929D01*
X20460214Y-9896214D02*
X20517357Y-9896214D01*
X20545928Y-9881929D01*
X20560214Y-9867643D01*
X20588786Y-9824786D01*
X20603071Y-9767643D01*
X20603071Y-9653357D01*
X20588786Y-9624786D01*
X20574500Y-9610500D01*
X20545928Y-9596214D01*
X20488786Y-9596214D01*
X20460214Y-9610500D01*
X20445928Y-9624786D01*
X20431643Y-9653357D01*
X20431643Y-9724786D01*
X20445928Y-9753357D01*
X20460214Y-9767643D01*
X20488786Y-9781929D01*
X20545928Y-9781929D01*
X20574500Y-9767643D01*
X20588786Y-9753357D01*
X20603071Y-9724786D01*
X20960214Y-9896214D02*
X20960214Y-9596214D01*
X21088786Y-9896214D02*
X21088786Y-9739072D01*
X21074500Y-9710500D01*
X21045928Y-9696214D01*
X21003071Y-9696214D01*
X20974500Y-9710500D01*
X20960214Y-9724786D01*
X21274500Y-9896214D02*
X21245928Y-9881929D01*
X21231643Y-9867643D01*
X21217357Y-9839072D01*
X21217357Y-9753357D01*
X21231643Y-9724786D01*
X21245928Y-9710500D01*
X21274500Y-9696214D01*
X21317357Y-9696214D01*
X21345928Y-9710500D01*
X21360214Y-9724786D01*
X21374500Y-9753357D01*
X21374500Y-9839072D01*
X21360214Y-9867643D01*
X21345928Y-9881929D01*
X21317357Y-9896214D01*
X21274500Y-9896214D01*
X21545928Y-9896214D02*
X21517357Y-9881929D01*
X21503071Y-9853357D01*
X21503071Y-9596214D01*
X21774500Y-9881929D02*
X21745928Y-9896214D01*
X21688786Y-9896214D01*
X21660214Y-9881929D01*
X21645928Y-9853357D01*
X21645928Y-9739072D01*
X21660214Y-9710500D01*
X21688786Y-9696214D01*
X21745928Y-9696214D01*
X21774500Y-9710500D01*
X21788786Y-9739072D01*
X21788786Y-9767643D01*
X21645928Y-9796214D01*
X21903071Y-9881929D02*
X21931643Y-9896214D01*
X21988786Y-9896214D01*
X22017357Y-9881929D01*
X22031643Y-9853357D01*
X22031643Y-9839072D01*
X22017357Y-9810500D01*
X21988786Y-9796214D01*
X21945928Y-9796214D01*
X21917357Y-9781929D01*
X21903071Y-9753357D01*
X21903071Y-9739072D01*
X21917357Y-9710500D01*
X21945928Y-9696214D01*
X21988786Y-9696214D01*
X22017357Y-9710500D01*
X22131643Y-10010500D02*
X22145928Y-9996214D01*
X22174500Y-9953357D01*
X22188786Y-9924786D01*
X22203071Y-9881929D01*
X22217357Y-9810500D01*
X22217357Y-9753357D01*
X22203071Y-9681929D01*
X22188786Y-9639072D01*
X22174500Y-9610500D01*
X22145928Y-9567643D01*
X22131643Y-9553357D01*
X15340462Y-10202463D02*
X15340462Y-10110538D01*
X15248537Y-10110538D01*
X15248537Y-10202463D01*
X15340462Y-10202463D01*
X15803071Y-10292214D02*
X15631643Y-10292214D01*
X15717357Y-10292214D02*
X15717357Y-9992214D01*
X15688786Y-10035072D01*
X15660214Y-10063643D01*
X15631643Y-10077929D01*
X15931643Y-10263643D02*
X15945928Y-10277929D01*
X15931643Y-10292214D01*
X15917357Y-10277929D01*
X15931643Y-10263643D01*
X15931643Y-10292214D01*
X16045928Y-9992214D02*
X16231643Y-9992214D01*
X16131643Y-10106500D01*
X16174500Y-10106500D01*
X16203071Y-10120786D01*
X16217357Y-10135072D01*
X16231643Y-10163643D01*
X16231643Y-10235072D01*
X16217357Y-10263643D01*
X16203071Y-10277929D01*
X16174500Y-10292214D01*
X16088786Y-10292214D01*
X16060214Y-10277929D01*
X16045928Y-10263643D01*
X16417357Y-9992214D02*
X16445928Y-9992214D01*
X16474500Y-10006500D01*
X16488786Y-10020786D01*
X16503071Y-10049357D01*
X16517357Y-10106500D01*
X16517357Y-10177929D01*
X16503071Y-10235072D01*
X16488786Y-10263643D01*
X16474500Y-10277929D01*
X16445928Y-10292214D01*
X16417357Y-10292214D01*
X16388786Y-10277929D01*
X16374500Y-10263643D01*
X16360214Y-10235072D01*
X16345928Y-10177929D01*
X16345928Y-10106500D01*
X16360214Y-10049357D01*
X16374500Y-10020786D01*
X16388786Y-10006500D01*
X16417357Y-9992214D01*
X16645928Y-10292214D02*
X16645928Y-10092214D01*
X16645928Y-10120786D02*
X16660214Y-10106500D01*
X16688786Y-10092214D01*
X16731643Y-10092214D01*
X16760214Y-10106500D01*
X16774500Y-10135072D01*
X16774500Y-10292214D01*
X16774500Y-10135072D02*
X16788786Y-10106500D01*
X16817357Y-10092214D01*
X16860214Y-10092214D01*
X16888786Y-10106500D01*
X16903071Y-10135072D01*
X16903071Y-10292214D01*
X17045928Y-10292214D02*
X17045928Y-10092214D01*
X17045928Y-10120786D02*
X17060214Y-10106500D01*
X17088786Y-10092214D01*
X17131643Y-10092214D01*
X17160214Y-10106500D01*
X17174500Y-10135072D01*
X17174500Y-10292214D01*
X17174500Y-10135072D02*
X17188786Y-10106500D01*
X17217357Y-10092214D01*
X17260214Y-10092214D01*
X17288786Y-10106500D01*
X17303071Y-10135072D01*
X17303071Y-10292214D01*
X17888786Y-9977929D02*
X17631643Y-10363643D01*
X18274500Y-9992214D02*
X18303071Y-9992214D01*
X18331643Y-10006500D01*
X18345928Y-10020786D01*
X18360214Y-10049357D01*
X18374500Y-10106500D01*
X18374500Y-10177929D01*
X18360214Y-10235072D01*
X18345928Y-10263643D01*
X18331643Y-10277929D01*
X18303071Y-10292214D01*
X18274500Y-10292214D01*
X18245928Y-10277929D01*
X18231643Y-10263643D01*
X18217357Y-10235072D01*
X18203071Y-10177929D01*
X18203071Y-10106500D01*
X18217357Y-10049357D01*
X18231643Y-10020786D01*
X18245928Y-10006500D01*
X18274500Y-9992214D01*
X18503071Y-10263643D02*
X18517357Y-10277929D01*
X18503071Y-10292214D01*
X18488786Y-10277929D01*
X18503071Y-10263643D01*
X18503071Y-10292214D01*
X18703071Y-9992214D02*
X18731643Y-9992214D01*
X18760214Y-10006500D01*
X18774500Y-10020786D01*
X18788786Y-10049357D01*
X18803071Y-10106500D01*
X18803071Y-10177929D01*
X18788786Y-10235072D01*
X18774500Y-10263643D01*
X18760214Y-10277929D01*
X18731643Y-10292214D01*
X18703071Y-10292214D01*
X18674500Y-10277929D01*
X18660214Y-10263643D01*
X18645928Y-10235072D01*
X18631643Y-10177929D01*
X18631643Y-10106500D01*
X18645928Y-10049357D01*
X18660214Y-10020786D01*
X18674500Y-10006500D01*
X18703071Y-9992214D01*
X19074500Y-9992214D02*
X18931643Y-9992214D01*
X18917357Y-10135072D01*
X18931643Y-10120786D01*
X18960214Y-10106500D01*
X19031643Y-10106500D01*
X19060214Y-10120786D01*
X19074500Y-10135072D01*
X19088786Y-10163643D01*
X19088786Y-10235072D01*
X19074500Y-10263643D01*
X19060214Y-10277929D01*
X19031643Y-10292214D01*
X18960214Y-10292214D01*
X18931643Y-10277929D01*
X18917357Y-10263643D01*
X19374500Y-10292214D02*
X19203071Y-10292214D01*
X19288786Y-10292214D02*
X19288786Y-9992214D01*
X19260214Y-10035072D01*
X19231643Y-10063643D01*
X19203071Y-10077929D01*
X19488786Y-9992214D02*
X19488786Y-10049357D01*
X19603071Y-9992214D02*
X19603071Y-10049357D01*
X20045928Y-10406500D02*
X20031643Y-10392214D01*
X20003071Y-10349357D01*
X19988786Y-10320786D01*
X19974500Y-10277929D01*
X19960214Y-10206500D01*
X19960214Y-10149357D01*
X19974500Y-10077929D01*
X19988786Y-10035072D01*
X20003071Y-10006500D01*
X20031643Y-9963643D01*
X20045928Y-9949357D01*
X20145928Y-10020786D02*
X20160214Y-10006500D01*
X20188786Y-9992214D01*
X20260214Y-9992214D01*
X20288786Y-10006500D01*
X20303071Y-10020786D01*
X20317357Y-10049357D01*
X20317357Y-10077929D01*
X20303071Y-10120786D01*
X20131643Y-10292214D01*
X20317357Y-10292214D01*
X20674500Y-10292214D02*
X20674500Y-9992214D01*
X20803071Y-10292214D02*
X20803071Y-10135072D01*
X20788786Y-10106500D01*
X20760214Y-10092214D01*
X20717357Y-10092214D01*
X20688786Y-10106500D01*
X20674500Y-10120786D01*
X20988786Y-10292214D02*
X20960214Y-10277929D01*
X20945928Y-10263643D01*
X20931643Y-10235072D01*
X20931643Y-10149357D01*
X20945928Y-10120786D01*
X20960214Y-10106500D01*
X20988786Y-10092214D01*
X21031643Y-10092214D01*
X21060214Y-10106500D01*
X21074500Y-10120786D01*
X21088786Y-10149357D01*
X21088786Y-10235072D01*
X21074500Y-10263643D01*
X21060214Y-10277929D01*
X21031643Y-10292214D01*
X20988786Y-10292214D01*
X21260214Y-10292214D02*
X21231643Y-10277929D01*
X21217357Y-10249357D01*
X21217357Y-9992214D01*
X21488786Y-10277929D02*
X21460214Y-10292214D01*
X21403071Y-10292214D01*
X21374500Y-10277929D01*
X21360214Y-10249357D01*
X21360214Y-10135072D01*
X21374500Y-10106500D01*
X21403071Y-10092214D01*
X21460214Y-10092214D01*
X21488786Y-10106500D01*
X21503071Y-10135072D01*
X21503071Y-10163643D01*
X21360214Y-10192214D01*
X21617357Y-10277929D02*
X21645928Y-10292214D01*
X21703071Y-10292214D01*
X21731643Y-10277929D01*
X21745928Y-10249357D01*
X21745928Y-10235072D01*
X21731643Y-10206500D01*
X21703071Y-10192214D01*
X21660214Y-10192214D01*
X21631643Y-10177929D01*
X21617357Y-10149357D01*
X21617357Y-10135072D01*
X21631643Y-10106500D01*
X21660214Y-10092214D01*
X21703071Y-10092214D01*
X21731643Y-10106500D01*
X21845928Y-10406500D02*
X21860214Y-10392214D01*
X21888786Y-10349357D01*
X21903071Y-10320786D01*
X21917357Y-10277929D01*
X21931643Y-10206500D01*
X21931643Y-10149357D01*
X21917357Y-10077929D01*
X21903071Y-10035072D01*
X21888786Y-10006500D01*
X21860214Y-9963643D01*
X21845928Y-9949357D01*
M02*
